<?xml version="1.0" encoding="UTF-8" standalone="no"?>
<!-- Created with Inkscape (http://www.inkscape.org/) -->

<svg
   width="210mm"
   height="297mm"
   viewBox="0 0 210 297"
   version="1.1"
   id="svg1"
   inkscape:version="1.4.2 (f4327f4, 2025-05-13)"
   sodipodi:docname="logo.svg"
   xmlns:inkscape="http://www.inkscape.org/namespaces/inkscape"
   xmlns:sodipodi="http://sodipodi.sourceforge.net/DTD/sodipodi-0.dtd"
   xmlns="http://www.w3.org/2000/svg"
   xmlns:svg="http://www.w3.org/2000/svg">
  <sodipodi:namedview
     id="namedview1"
     pagecolor="#ffffff"
     bordercolor="#000000"
     borderopacity="0.25"
     inkscape:showpageshadow="2"
     inkscape:pageopacity="0.0"
     inkscape:pagecheckerboard="0"
     inkscape:deskcolor="#d1d1d1"
     inkscape:document-units="mm"
     inkscape:zoom="2.1165771"
     inkscape:cx="388.12667"
     inkscape:cy="346.5501"
     inkscape:window-width="2560"
     inkscape:window-height="1494"
     inkscape:window-x="-11"
     inkscape:window-y="-11"
     inkscape:window-maximized="1"
     inkscape:current-layer="text2" />
  <defs
     id="defs1">
    <rect
       x="212.01333"
       y="163.59053"
       width="683.80842"
       height="261.74485"
       id="rect3" />
    <rect
       x="233.20277"
       y="173.05126"
       width="617.2649"
       height="173.51163"
       id="rect2" />
    <rect
       x="97.167821"
       y="131.40791"
       width="536.73654"
       height="96.242413"
       id="rect1" />
  </defs>
  <g
     inkscape:label="Layer 1"
     inkscape:groupmode="layer"
     id="layer1">
    <text
       xml:space="preserve"
       transform="scale(0.26458333)"
       id="text1"
       style="text-align:start;writing-mode:lr-tb;direction:ltr;white-space:pre;shape-inside:url(#rect1);display:inline;fill:#000000" />
    <g
       id="text2"
       style="font-size:96px;white-space:pre"
       transform="matrix(0.26458333,0,0,0.26458333,-33.414729,6.059666)"
       aria-label="[lessi.co]">
      <path
         style="font-weight:600;font-size:122.667px;font-family:'Source Code Pro';-inkscape-font-specification:'Source Code Pro Semi-Bold';fill:#322e64;stroke-width:1.03135"
         d="M 255.20853,307.05526 V 194.84323 h 35.20543 v 11.04024 h -24.1654 v 90.13039 h 24.1654 v 11.0414 z"
         id="path10"
         sodipodi:nodetypes="ccccccccc" />
      <path
         style="font-weight:600;font-family:'Source Code Pro';-inkscape-font-specification:'Source Code Pro Semi-Bold';fill:#322e64"
         d="m 588.41952,226.63387 c -2.24,0 -4.128,-0.672 -5.664,-2.016 -1.472,-1.344 -2.208,-3.136 -2.208,-5.376 0,-2.24 0.736,-4.032 2.208,-5.376 1.536,-1.408 3.424,-2.112 5.664,-2.112 2.304,0 4.192,0.704 5.664,2.112 1.472,1.344 2.208,3.136 2.208,5.376 0,2.24 -0.736,4.032 -2.208,5.376 -1.472,1.344 -3.36,2.016 -5.664,2.016 z"
         id="path19" />
      <path
         style="font-weight:600;font-family:'Source Code Pro';-inkscape-font-specification:'Source Code Pro Semi-Bold';fill:#322e64"
         d="m 585.71552,282.40987 v -38.4 h -14.37501 v -8.736 h 25.41501 v 47.136 z"
         id="path18" />
      <path
         style="font-weight:600;font-family:'Source Code Pro';-inkscape-font-specification:'Source Code Pro Semi-Bold';fill:#322e64"
         d="m 534.69149,283.56187 c -4.416,0 -8.64,-0.704 -12.672,-2.112 -4.032,-1.472 -7.52,-3.2 -10.464,-5.184 l 4.8,-7.008 c 2.816,1.856 5.856,3.328 9.12,4.416 3.264,1.024 6.816,1.536 10.656,1.536 3.264,0 5.664,-0.544 7.2,-1.632 1.6,-1.152 2.4,-2.496 2.4,-4.032 0,-0.768 -0.192,-1.472 -0.576,-2.112 -0.32,-0.64 -0.928,-1.216 -1.824,-1.728 -0.896,-0.576 -2.208,-1.12 -3.936,-1.632 -1.728,-0.512 -3.968,-1.056 -6.72,-1.632 -6.272,-1.344 -10.88,-3.168 -13.824,-5.472 -2.944,-2.304 -4.416,-5.216 -4.416,-8.736 0,-4.16 1.792,-7.552 5.376,-10.176 3.648,-2.624 8.768,-3.936 15.36,-3.936 3.904,0 7.552,0.64 10.944,1.92 3.456,1.28 6.368,2.72 8.736,4.32 l -5.088,6.816 c -2.24,-1.536 -4.704,-2.688 -7.392,-3.456 -2.688,-0.832 -5.408,-1.248 -8.16,-1.248 -2.112,0 -3.808,0.224 -5.088,0.672 -1.216,0.448 -2.144,1.088 -2.784,1.92 -0.576,0.768 -0.864,1.632 -0.864,2.592 0,1.664 0.96,2.912 2.88,3.744 1.92,0.832 5.056,1.728 9.408,2.688 5.056,1.088 8.96,2.336 11.712,3.744 2.752,1.344 4.64,2.912 5.664,4.704 1.088,1.728 1.632,3.872 1.632,6.432 0,2.688 -0.864,5.152 -2.592,7.392 -1.664,2.176 -4.128,3.936 -7.392,5.28 -3.264,1.28 -7.296,1.92 -12.096,1.92 z"
         id="path17" />
      <path
         style="font-weight:600;font-family:'Source Code Pro';-inkscape-font-specification:'Source Code Pro Semi-Bold';fill:#322e64"
         d="m 477.09145,283.56187 c -4.416,0 -8.64,-0.704 -12.672,-2.112 -4.032,-1.472 -7.52,-3.2 -10.464,-5.184 l 4.8,-7.008 c 2.816,1.856 5.856,3.328 9.12,4.416 3.264,1.024 6.816,1.536 10.656,1.536 3.264,0 5.664,-0.544 7.2,-1.632 1.6,-1.152 2.4,-2.496 2.4,-4.032 0,-0.768 -0.192,-1.472 -0.576,-2.112 -0.32,-0.64 -0.928,-1.216 -1.824,-1.728 -0.896,-0.576 -2.208,-1.12 -3.936,-1.632 -1.728,-0.512 -3.968,-1.056 -6.72,-1.632 -6.272,-1.344 -10.88,-3.168 -13.824,-5.472 -2.944,-2.304 -4.416,-5.216 -4.416,-8.736 0,-4.16 1.792,-7.552 5.376,-10.176 3.648,-2.624 8.768,-3.936 15.36,-3.936 3.904,0 7.552,0.64 10.944,1.92 3.456,1.28 6.368,2.72 8.736,4.32 l -5.088,6.816 c -2.24,-1.536 -4.704,-2.688 -7.392,-3.456 -2.688,-0.832 -5.408,-1.248 -8.16,-1.248 -2.112,0 -3.808,0.224 -5.088,0.672 -1.216,0.448 -2.144,1.088 -2.784,1.92 -0.576,0.768 -0.864,1.632 -0.864,2.592 0,1.664 0.96,2.912 2.88,3.744 1.92,0.832 5.056,1.728 9.408,2.688 5.056,1.088 8.96,2.336 11.712,3.744 2.752,1.344 4.64,2.912 5.664,4.704 1.088,1.728 1.632,3.872 1.632,6.432 0,2.688 -0.864,5.152 -2.592,7.392 -1.664,2.176 -4.128,3.936 -7.392,5.28 -3.264,1.28 -7.296,1.92 -12.096,1.92 z"
         id="path16" />
      <path
         style="font-weight:600;font-family:'Source Code Pro';-inkscape-font-specification:'Source Code Pro Semi-Bold';fill:#322e64"
         d="m 422.08341,283.56187 c -4.8,0 -9.152,-0.96 -13.056,-2.88 -3.904,-1.984 -7.008,-4.8 -9.312,-8.448 -2.304,-3.712 -3.456,-8.192 -3.456,-13.44 0,-5.12 1.152,-9.504 3.456,-13.152 2.304,-3.712 5.312,-6.56 9.024,-8.544 3.712,-1.984 7.68,-2.976 11.904,-2.976 4.672,0 8.608,0.96 11.808,2.88 3.264,1.92 5.728,4.576 7.392,7.968 1.728,3.328 2.592,7.168 2.592,11.52 0,1.088 -0.064,2.144 -0.192,3.168 -0.064,0.96 -0.16,1.76 -0.288,2.4 h -37.728 v -7.872 h 30.624 l -2.112,2.496 c 0,-4.672 -1.056,-8.16 -3.168,-10.464 -2.048,-2.368 -4.928,-3.552 -8.64,-3.552 -2.624,0 -4.992,0.608 -7.104,1.824 -2.048,1.216 -3.68,3.04 -4.896,5.472 -1.216,2.368 -1.824,5.312 -1.824,8.832 0,3.648 0.672,6.656 2.016,9.024 1.408,2.368 3.328,4.16 5.76,5.376 2.496,1.216 5.376,1.824 8.64,1.824 2.496,0 4.8,-0.352 6.912,-1.056 2.112,-0.704 4.224,-1.664 6.336,-2.88 l 3.744,6.912 c -2.496,1.6 -5.312,2.944 -8.448,4.032 -3.136,1.024 -6.464,1.536 -9.984,1.536 z"
         id="path15" />
      <path
         style="font-weight:600;font-family:'Source Code Pro';-inkscape-font-specification:'Source Code Pro Semi-Bold';fill:#322e64"
         d="m 373.20338,283.56187 c -5.44,0 -9.6,-1.6 -12.48,-4.8 -2.816,-3.264 -4.224,-7.776 -4.224,-13.536 v -41.856 h -15.36 v -8.736 h 26.4 v 51.168 c 0,3.2 0.8,5.472 2.4,6.816 1.664,1.28 3.68,1.92 6.048,1.92 1.216,0 2.464,-0.128 3.744,-0.384 1.28,-0.32 2.72,-0.8 4.32,-1.44 l 2.592,8.16 c -2.24,0.768 -4.352,1.408 -6.336,1.92 -1.92,0.512 -4.288,0.768 -7.104,0.768 z"
         id="path11" />
      <path
         style="font-weight:600;font-family:'Source Code Pro';-inkscape-font-specification:'Source Code Pro Semi-Bold';fill:#67a6a3"
         d="m 730.80363,283.56187 c -4.16,0 -8.032,-0.96 -11.616,-2.88 -3.584,-1.984 -6.496,-4.8 -8.736,-8.448 -2.24,-3.712 -3.36,-8.16 -3.36,-13.344 0,-5.248 1.12,-9.696 3.36,-13.344 2.24,-3.712 5.152,-6.528 8.736,-8.448 3.584,-1.984 7.456,-2.976 11.616,-2.976 4.16,0 8.032,0.992 11.616,2.976 3.584,1.92 6.496,4.736 8.736,8.448 2.24,3.648 3.36,8.096 3.36,13.344 0,5.184 -1.12,9.632 -3.36,13.344 -2.24,3.648 -5.152,6.464 -8.736,8.448 -3.584,1.92 -7.456,2.88 -11.616,2.88 z m 0,-9.024 c 2.56,0 4.768,-0.64 6.624,-1.92 1.856,-1.28 3.264,-3.104 4.224,-5.472 0.96,-2.368 1.44,-5.12 1.44,-8.256 0,-3.136 -0.48,-5.888 -1.44,-8.256 -0.96,-2.368 -2.368,-4.192 -4.224,-5.472 -1.856,-1.344 -4.064,-2.016 -6.624,-2.016 -2.56,0 -4.768,0.672 -6.624,2.016 -1.792,1.28 -3.2,3.104 -4.224,5.472 -0.96,2.368 -1.44,5.12 -1.44,8.256 0,3.136 0.48,5.888 1.44,8.256 1.024,2.368 2.432,4.192 4.224,5.472 1.856,1.28 4.064,1.92 6.624,1.92 z"
         id="path21" />
      <path
         style="font-weight:600;font-family:'Source Code Pro';-inkscape-font-specification:'Source Code Pro Semi-Bold';fill:#67a6a3"
         d="m 677.42759,283.56187 c -4.928,0 -9.376,-0.96 -13.344,-2.88 -3.904,-1.984 -7.008,-4.8 -9.312,-8.448 -2.24,-3.712 -3.36,-8.16 -3.36,-13.344 0,-5.248 1.216,-9.696 3.648,-13.344 2.496,-3.712 5.792,-6.528 9.888,-8.448 4.096,-1.984 8.512,-2.976 13.248,-2.976 3.84,0 7.232,0.64 10.176,1.92 2.944,1.216 5.376,2.784 7.296,4.704 l -5.28,6.912 c -1.856,-1.472 -3.744,-2.592 -5.664,-3.36 -1.856,-0.768 -3.84,-1.152 -5.952,-1.152 -3.136,0 -5.92,0.672 -8.352,2.016 -2.368,1.28 -4.224,3.104 -5.568,5.472 -1.344,2.368 -2.016,5.12 -2.016,8.256 0,3.136 0.64,5.888 1.92,8.256 1.344,2.368 3.168,4.192 5.472,5.472 2.368,1.28 5.12,1.92 8.256,1.92 2.688,0 5.152,-0.512 7.392,-1.536 2.24,-1.024 4.256,-2.24 6.048,-3.648 l 4.608,7.104 c -2.688,2.304 -5.696,4.064 -9.024,5.28 -3.328,1.216 -6.688,1.824 -10.08,1.824 z"
         id="path20" />
      <path
         style="font-weight:600;font-family:'Source Code Pro';-inkscape-font-specification:'Source Code Pro Semi-Bold';fill:#67a6a3;stroke-width:0.836648"
         d="m 626.35028,283.80578 c -2.33354,0 -4.30594,-0.74825 -5.91718,-2.24477 -1.55569,-1.4965 -2.33354,-3.35423 -2.33354,-5.57318 0,-2.27057 0.77785,-4.12829 2.33354,-5.5732 1.61124,-1.4965 3.58364,-2.24476 5.91718,-2.24476 2.38909,0 4.36148,0.74826 5.91717,2.24476 1.55569,1.44491 2.33353,3.30263 2.33353,5.5732 0,2.21895 -0.77784,4.07668 -2.33353,5.57318 -1.55569,1.49652 -3.52808,2.24477 -5.91717,2.24477 z"
         id="path12" />
      <path
         style="font-weight:600;font-size:122.667px;font-family:'Source Code Pro';-inkscape-font-specification:'Source Code Pro Semi-Bold';fill:#67a6a3;stroke-width:1.03134"
         d="m 754.74796,307.05387 v -11.04001 h 24.1654 v -90.13039 h -24.1654 v -11.04 h 35.20543 v 112.2104 z"
         id="path13"
         sodipodi:nodetypes="ccccccccc" />
      <circle
         style="opacity:0.92;fill:#322e64"
         id="path14"
         cx="294.06192"
         cy="252.91095"
         r="15.118111" />
      <circle
         style="font-size:96px;white-space:pre;opacity:0.9;fill:#67a6a3;fill-opacity:1"
         id="path14-8"
         cx="314.48477"
         cy="252.91212"
         r="15.118111" />
    </g>
    <text
       xml:space="preserve"
       transform="scale(0.26458333)"
       id="text3"
       style="font-style:normal;font-variant:normal;font-weight:normal;font-stretch:normal;font-size:96px;font-family:'Source Code Pro';-inkscape-font-specification:'Source Code Pro';text-align:start;writing-mode:lr-tb;direction:ltr;white-space:pre;shape-inside:url(#rect3);display:inline;fill:#322e64" />
  </g>
</svg>
